<?xml version="1.0" encoding="iso-8859-1"?>
<!-- Generator: Adobe Illustrator 19.0.0, SVG Export Plug-In . SVG Version: 6.00 Build 0)  -->
<svg version="1.1" id="Capa_1" xmlns="http://www.w3.org/2000/svg" xmlns:xlink="http://www.w3.org/1999/xlink" x="0px" y="0px"
	 viewBox="0 0 512 512" style="enable-background:new 0 0 512 512;" xml:space="preserve">
<g>
	<g>
		<path d="M256.296,64C155.33,64,73.185,146.939,73.185,248.889v90.074h35.556v-90.074c0-82.341,66.193-149.333,147.556-149.333
			s147.556,66.987,147.556,149.333v90.074h35.556v-90.074C439.407,146.945,357.262,64,256.296,64z"/>
	</g>
</g>
<g>
	<g>
		<path d="M342.222,210.963c-9.819,0-17.778,7.959-17.778,17.778v49.185c0,9.819,7.958,17.778,17.778,17.778
			S360,287.751,360,277.926v-49.185C360,218.922,352.042,210.963,342.222,210.963z"/>
	</g>
</g>
<g>
	<g>
		<path d="M454.222,321.185H57.778c-9.819,0-17.778,7.958-17.778,17.778v82.963c0,9.819,7.958,17.778,17.778,17.778h396.444
			c9.825,0,17.778-7.958,17.778-17.778v-82.963C472,329.144,464.041,321.185,454.222,321.185z M436.444,404.148H75.556v-47.407
			h360.889V404.148z"/>
	</g>
</g>
<g>
	<g>
		<path d="M291.259,421.926v19.556c0,19.283-15.68,34.963-34.963,34.963c-19.283,0-34.963-15.68-34.963-34.963v-19.556h-35.556
			v19.556c0,38.88,31.633,70.519,70.518,70.519s70.519-31.633,70.519-70.519v-19.556H291.259z"/>
	</g>
</g>
<g>
	<g>
		<path d="M256.296,0c-33.653,0-61.037,27.384-61.037,61.037v26.667h35.556V61.037c0-13.813,11.668-25.482,25.481-25.482
			c13.813,0,25.482,11.668,25.482,25.482v26.074h35.556V61.037C317.333,27.384,289.956,0,256.296,0z"/>
	</g>
</g>
<g>
</g>
<g>
</g>
<g>
</g>
<g>
</g>
<g>
</g>
<g>
</g>
<g>
</g>
<g>
</g>
<g>
</g>
<g>
</g>
<g>
</g>
<g>
</g>
<g>
</g>
<g>
</g>
<g>
</g>
</svg>
